<svg width="22" height="20" viewBox="0 0 22 20" fill="none" xmlns="http://www.w3.org/2000/svg">
<g>
<path d="M20.8552 20H0.855225C0.445225 20 0.105225 19.66 0.105225 19.25C0.105225 18.84 0.445225 18.5 0.855225 18.5H20.8552C21.2652 18.5 21.6052 18.84 21.6052 19.25C21.6052 19.66 21.2652 20 20.8552 20Z" fill="current"/>
<path d="M8.60522 2V20H13.1052V2C13.1052 0.9 12.6552 0 11.3052 0H10.4052C9.05522 0 8.60522 0.9 8.60522 2Z" fill="current"/>
<path d="M1.85522 8V20H5.85522V8C5.85522 6.9 5.45522 6 4.25522 6H3.45522C2.25522 6 1.85522 6.9 1.85522 8Z" fill="current"/>
<path d="M15.8552 13V20H19.8552V13C19.8552 11.9 19.4552 11 18.2552 11H17.4552C16.2552 11 15.8552 11.9 15.8552 13Z" fill="current"/>
</g>
</svg>
