<svg width="27" height="22" viewBox="0 0 27 22" fill="none" xmlns="http://www.w3.org/2000/svg">
<path d="M25.0468 10.4054C24.9338 10.2064 24.6161 9.89675 23.8253 10.0442C23.3876 10.1253 22.9428 10.1622 22.498 10.14C20.8529 10.0663 19.3631 9.27747 18.3252 8.06104C17.4073 6.99205 16.8425 5.59868 16.8354 4.09472C16.8354 3.25427 16.9908 2.44332 17.3085 1.67659C17.6191 0.931989 17.4003 0.541255 17.2449 0.379063C17.0825 0.2095 16.7013 -0.0264149 15.9529 0.297968C13.0651 1.56601 11.2788 4.58867 11.4906 7.82512C11.7024 10.8699 13.75 13.4723 16.4612 14.4529C17.1108 14.6888 17.7957 14.8288 18.5017 14.8583C18.6147 14.8657 18.7276 14.8731 18.8406 14.8731C21.2059 14.8731 23.4229 13.7082 24.8209 11.7251C25.2939 11.0395 25.1668 10.6045 25.0468 10.4054Z" fill="crrent"/>
<mask id="path-2-outside-1_192_490" maskUnits="userSpaceOnUse" x="1" y="7.76904" width="21" height="14" fill="black">
<rect fill="white" x="1" y="7.76904" width="21" height="14"/>
<path fill-rule="evenodd" clip-rule="evenodd" d="M5.41009 20.1363C3.52674 20.1363 2 18.6095 2 16.7261C2 14.8428 3.52678 13.316 5.41015 13.316C5.81022 13.316 6.1942 13.3849 6.55088 13.5114C6.54813 13.4466 6.54675 13.3814 6.54675 13.3159C6.54675 10.8047 8.58245 8.76904 11.0936 8.76904C13.2341 8.76904 15.0292 10.2481 15.5124 12.24C15.7386 12.2001 15.9713 12.1793 16.2089 12.1793C18.4062 12.1793 20.1874 13.9605 20.1874 16.1578C20.1874 18.1621 18.7053 19.8202 16.7773 20.096V20.1363H5.41009V20.1363Z"/>
</mask>
<path fill-rule="evenodd" clip-rule="evenodd" d="M5.41009 20.1363C3.52674 20.1363 2 18.6095 2 16.7261C2 14.8428 3.52678 13.316 5.41015 13.316C5.81022 13.316 6.1942 13.3849 6.55088 13.5114C6.54813 13.4466 6.54675 13.3814 6.54675 13.3159C6.54675 10.8047 8.58245 8.76904 11.0936 8.76904C13.2341 8.76904 15.0292 10.2481 15.5124 12.24C15.7386 12.2001 15.9713 12.1793 16.2089 12.1793C18.4062 12.1793 20.1874 13.9605 20.1874 16.1578C20.1874 18.1621 18.7053 19.8202 16.7773 20.096V20.1363H5.41009V20.1363Z" fill="current"/>
<path d="M5.41009 20.1363H6.41009V19.1363L5.41011 19.1363L5.41009 20.1363ZM6.55088 13.5114L6.21645 14.4539L7.61261 14.9493L7.54998 13.4692L6.55088 13.5114ZM15.5124 12.24L14.5406 12.4758L14.762 13.388L15.6863 13.2248L15.5124 12.24ZM16.7773 20.096L16.6357 19.1061L15.7773 19.2288V20.096H16.7773ZM16.7773 20.1363V21.1363H17.7773V20.1363H16.7773ZM5.41009 20.1363H4.41009V21.1363H5.41009V20.1363ZM5.41011 19.1363C4.07904 19.1363 3 18.0572 3 16.7261H1C1 19.1618 2.97445 21.1362 5.41007 21.1363L5.41011 19.1363ZM3 16.7261C3 15.395 4.07906 14.316 5.41015 14.316V12.316C2.97449 12.316 1 14.2905 1 16.7261H3ZM5.41015 14.316C5.6947 14.316 5.96565 14.3649 6.21645 14.4539L6.88531 12.569C6.42276 12.4049 5.92575 12.316 5.41015 12.316V14.316ZM7.54998 13.4692C7.54784 13.4184 7.54675 13.3673 7.54675 13.3159H5.54675C5.54675 13.3955 5.54843 13.4748 5.55177 13.5537L7.54998 13.4692ZM7.54675 13.3159C7.54675 11.357 9.13474 9.76904 11.0936 9.76904V7.76904C8.03017 7.76904 5.54675 10.2525 5.54675 13.3159H7.54675ZM11.0936 9.76904C12.762 9.76904 14.1636 10.922 14.5406 12.4758L16.4842 12.0042C15.8947 9.5743 13.7062 7.76904 11.0936 7.76904V9.76904ZM15.6863 13.2248C15.8553 13.1949 16.0299 13.1793 16.2089 13.1793V11.1793C15.9127 11.1793 15.6218 11.2052 15.3386 11.2552L15.6863 13.2248ZM16.2089 13.1793C17.8539 13.1793 19.1874 14.5128 19.1874 16.1578H21.1874C21.1874 13.4082 18.9585 11.1793 16.2089 11.1793V13.1793ZM19.1874 16.1578C19.1874 17.6574 18.0782 18.8997 16.6357 19.1061L16.9189 21.0859C19.3325 20.7407 21.1874 18.6667 21.1874 16.1578H19.1874ZM15.7773 20.096V20.1363H17.7773V20.096H15.7773ZM16.7773 19.1363H5.41009V21.1363H16.7773V19.1363ZM6.41009 20.1363V20.1363H4.41009V20.1363H6.41009Z" fill="#2C2C2C" mask="url(#path-2-outside-1_192_490)"/>
</svg>
