<svg width="19" height="20" viewBox="0 0 19 20" fill="none" xmlns="http://www.w3.org/2000/svg">
<path d="M18.1052 3.17883V14.4796C18.1052 16.4598 16.4753 18.0699 14.4708 18.0699C12.4764 18.0699 10.8364 16.4598 10.8364 14.4796C10.8364 12.5095 12.4764 10.8994 14.4708 10.8994C15.3212 10.8994 16.0805 11.1894 16.698 11.6694V5.719L7.37407 8.33919V16.4097C7.37407 18.3899 5.73402 20 3.73965 20C1.73515 20 0.105225 18.3899 0.105225 16.4097C0.105225 14.4396 1.73515 12.8295 3.73965 12.8295C4.57992 12.8295 5.3392 13.1195 5.95674 13.5896V4.74894C5.95674 3.27883 6.85776 2.13875 8.2852 1.75873L14.1367 0.178617C15.3212 -0.141405 16.3234 -0.0313976 17.0321 0.50864C17.7509 1.03868 18.1052 1.93874 18.1052 3.17883Z" fill="current"/>
</svg>
