<svg width="16" height="20" viewBox="0 0 16 20" fill="none" xmlns="http://www.w3.org/2000/svg">
<g>
<path d="M7.97361 0C5.07056 0 2.71045 2.12634 2.71045 4.74183C2.71045 7.30742 4.9376 9.38384 7.84064 9.47368C7.92929 9.4637 8.01793 9.4637 8.08441 9.47368C8.10657 9.47368 8.11765 9.47368 8.13981 9.47368C8.15089 9.47368 8.15089 9.47368 8.16197 9.47368C10.9985 9.38384 13.2257 7.30742 13.2368 4.74183C13.2368 2.12634 10.8767 0 7.97361 0Z" fill="current"/>
<path d="M13.2906 11.9558C10.3705 10.0498 5.60821 10.0498 2.66713 11.9558C1.33788 12.8268 0.605225 14.0053 0.605225 15.2657C0.605225 16.5261 1.33788 17.6943 2.65666 18.5551C4.12197 19.5184 6.04781 20 7.97365 20C9.89948 20 11.8253 19.5184 13.2906 18.5551C14.6094 17.6841 15.3421 16.5159 15.3421 15.2452C15.3316 13.9848 14.6094 12.8166 13.2906 11.9558Z" fill="current"/>
</g>
</svg>
