<svg width="20" height="20" viewBox="0 0 20 20" fill="none" xmlns="http://www.w3.org/2000/svg">
<path d="M13.8422 0H5.42112C2.51585 0 0.157959 2.24 0.157959 5V15C0.157959 17.76 2.51585 20 5.42112 20H13.8422C16.7474 20 19.1053 17.76 19.1053 15V5C19.1053 2.24 16.7474 0 13.8422 0ZM6.32638 16.63C6.12638 16.82 5.86322 16.92 5.58954 16.92C5.30533 16.92 5.04217 16.82 4.84217 16.63C4.64217 16.44 4.52638 16.19 4.52638 15.92C4.52638 15.66 4.64217 15.4 4.84217 15.21C4.93691 15.12 5.0527 15.05 5.17901 15C5.44217 14.9 5.72638 14.9 5.98954 15C6.0527 15.02 6.11585 15.05 6.16849 15.09C6.23164 15.12 6.28427 15.17 6.32638 15.21C6.52638 15.4 6.64217 15.66 6.64217 15.92C6.64217 16.19 6.52638 16.44 6.32638 16.63ZM4.52638 11.92C4.52638 11.79 4.55796 11.66 4.61059 11.54C4.66322 11.41 4.73691 11.31 4.84217 11.21C5.08427 10.98 5.4527 10.87 5.78954 10.94C5.8527 10.95 5.92638 10.97 5.98954 11C6.0527 11.02 6.11585 11.05 6.16849 11.09C6.23164 11.12 6.28427 11.17 6.32638 11.21C6.42112 11.31 6.50533 11.41 6.55796 11.54C6.61059 11.66 6.63164 11.79 6.63164 11.92C6.63164 12.19 6.52638 12.44 6.32638 12.63C6.12638 12.82 5.86322 12.92 5.58954 12.92C5.44217 12.92 5.30533 12.89 5.17901 12.84C5.0527 12.79 4.93691 12.72 4.84217 12.63C4.64217 12.44 4.52638 12.19 4.52638 11.92ZM10.5369 16.63C10.4422 16.72 10.3264 16.79 10.2001 16.84C10.0737 16.89 9.93691 16.92 9.78954 16.92C9.51585 16.92 9.2527 16.82 9.0527 16.63C8.8527 16.44 8.73691 16.19 8.73691 15.92C8.73691 15.85 8.74743 15.79 8.75796 15.72C8.77901 15.66 8.80006 15.6 8.82112 15.54C8.8527 15.48 8.88427 15.42 8.91585 15.36C8.95796 15.31 9.00006 15.26 9.0527 15.21C9.14743 15.12 9.26322 15.05 9.38954 15C9.77901 14.85 10.2422 14.93 10.5369 15.21C10.7369 15.4 10.8422 15.66 10.8422 15.92C10.8422 16.19 10.7369 16.44 10.5369 16.63ZM10.5369 12.63C10.3369 12.82 10.0737 12.92 9.78954 12.92C9.51585 12.92 9.2527 12.82 9.0527 12.63C8.8527 12.44 8.73691 12.19 8.73691 11.92C8.73691 11.66 8.8527 11.4 9.0527 11.21C9.44217 10.84 10.1474 10.84 10.5369 11.21C10.6316 11.31 10.7159 11.41 10.7685 11.54C10.8211 11.66 10.8422 11.79 10.8422 11.92C10.8422 12.19 10.7369 12.44 10.5369 12.63ZM6.47375 8.46C5.38954 8.46 4.4948 7.62 4.4948 6.58V5.58C4.4948 4.55 5.37901 3.7 6.47375 3.7H12.7895C13.8737 3.7 14.7685 4.54 14.7685 5.58V6.58C14.7685 7.61 13.8843 8.46 12.7895 8.46H6.47375ZM14.7474 16.63C14.5474 16.82 14.2843 16.92 14.0001 16.92C13.8632 16.92 13.7264 16.89 13.6001 16.84C13.4737 16.79 13.358 16.72 13.2632 16.63C13.0632 16.44 12.958 16.19 12.958 15.92C12.958 15.66 13.0632 15.4 13.2632 15.21C13.5474 14.93 14.0211 14.85 14.4106 15C14.5369 15.05 14.6527 15.12 14.7474 15.21C14.9474 15.4 15.0527 15.66 15.0527 15.92C15.0527 16.19 14.9474 16.44 14.7474 16.63ZM14.979 12.3C14.9264 12.42 14.8527 12.53 14.7474 12.63C14.5474 12.82 14.2843 12.92 14.0001 12.92C13.7264 12.92 13.4632 12.82 13.2632 12.63C13.0632 12.44 12.9474 12.19 12.9474 11.92C12.9474 11.66 13.0632 11.4 13.2632 11.21C13.6527 10.84 14.358 10.84 14.7474 11.21C14.9474 11.4 15.0632 11.66 15.0632 11.92C15.0632 12.05 15.0316 12.18 14.979 12.3Z" fill="current"/>
</svg>
