<svg width="13" height="13" viewBox="0 0 13 13" fill="none" xmlns="http://www.w3.org/2000/svg">
<circle cx="6.5" cy="6.5" r="6.5" fill="white" fill-opacity="0.5"/>
<path d="M7.40215 3.63702C7.40215 3.89502 7.32115 4.10202 7.15915 4.25802C7.00315 4.40802 6.79315 4.48302 6.52915 4.48302C6.27115 4.48302 6.06415 4.40802 5.90815 4.25802C5.75815 4.10202 5.68315 3.89502 5.68315 3.63702C5.68315 3.38502 5.76115 3.18102 5.91715 3.02502C6.07915 2.86902 6.28915 2.79102 6.54715 2.79102C6.80515 2.79102 7.01215 2.86902 7.16815 3.02502C7.32415 3.18102 7.40215 3.38502 7.40215 3.63702ZM7.23115 9.02802C7.23115 9.20202 7.27315 9.32802 7.35715 9.40602C7.44715 9.47802 7.58215 9.51402 7.76215 9.51402C7.76215 9.70002 7.69315 9.86202 7.55515 10H5.52115C5.38315 9.86202 5.31415 9.70002 5.31415 9.51402C5.49415 9.51402 5.62315 9.47802 5.70115 9.40602C5.78515 9.32802 5.82715 9.19902 5.82715 9.01902V6.40902C5.82715 6.24102 5.78515 6.12102 5.70115 6.04902C5.62315 5.97702 5.46715 5.94102 5.23315 5.94102V5.54502C5.37715 5.45502 5.62015 5.36202 5.96215 5.26602C6.31015 5.16402 6.60415 5.11302 6.84415 5.11302C6.98215 5.11302 7.08115 5.14602 7.14115 5.21202C7.20115 5.27202 7.23115 5.37702 7.23115 5.52702V9.02802Z" fill="black"/>
</svg>
